<svg width="94" height="24" viewBox="0 0 94 24" fill="none" xmlns="http://www.w3.org/2000/svg">
<path fill-rule="evenodd" clip-rule="evenodd" d="M87.5938 8L94 11L87.5938 14L87.5938 11.5196L84.6818 11.5196L84.6818 10.4804L87.5938 10.4804L87.5938 8ZM77.2273 10.4804L80.9545 10.4804L80.9545 11.5196L77.2273 11.5196L77.2273 10.4804ZM69.7727 10.4804L73.5 10.4804L73.5 11.5196L69.7727 11.5196L69.7727 10.4804ZM62.3182 10.4804L66.0455 10.4804L66.0455 11.5196L62.3182 11.5196L62.3182 10.4804ZM54.8636 10.4804L58.5909 10.4804L58.5909 11.5196L54.8636 11.5196L54.8636 10.4804ZM47.4091 10.4804L51.1364 10.4804L51.1364 11.5196L47.4091 11.5196L47.4091 10.4804ZM39.9545 10.4804L43.6818 10.4804L43.6818 11.5196L39.9545 11.5196L39.9545 10.4804ZM32.5 10.4804L36.2273 10.4804L36.2273 11.5196L32.5 11.5196L32.5 10.4804ZM25.0454 10.4804L28.7727 10.4804L28.7727 11.5196L25.0454 11.5196L25.0454 10.4804ZM17.5909 10.4804L21.3182 10.4804L21.3182 11.5196L17.5909 11.5196L17.5909 10.4804ZM12 10.4804L13.8636 10.4804L13.8636 11.5196L12 11.5196L12 10.4804Z" fill="url(#paint0_linear_51_438)" fill-opacity="0.7"/>
<path d="M24 12C24 18.6274 18.6274 24 12 24C5.37258 24 0 18.6274 0 12C0 5.37258 5.37258 0 12 0C18.6274 0 24 5.37258 24 12Z" fill="#3B48D0"/>
<defs>
<linearGradient id="paint0_linear_51_438" x1="84.98" y1="13.4352" x2="84.6611" y2="5.18966" gradientUnits="userSpaceOnUse">
<stop stop-color="#15BFFD"/>
<stop offset="1" stop-color="#9C37FD"/>
</linearGradient>
</defs>
</svg>
