<svg width="1920" height="6824" viewBox="0 0 1920 6824" fill="none" xmlns="http://www.w3.org/2000/svg">
<g filter="url(#filter0_f_5_301)">
<circle cx="1596" cy="3860" r="178" fill="#2A3E84"/>
</g>
<g filter="url(#filter1_f_5_301)">
<circle cx="441" cy="4561" r="178" fill="#2A3E84"/>
</g>
<g filter="url(#filter2_f_5_301)">
<circle cx="1616" cy="4890" r="178" fill="#2A3E84"/>
</g>
<g filter="url(#filter3_f_5_301)">
<circle cx="1616" cy="6296" r="178" fill="#2A3E84"/>
</g>
<g filter="url(#filter4_f_5_301)">
<circle cx="442" cy="5983" r="204" fill="#2A3E84"/>
</g>
<g filter="url(#filter5_f_5_301)">
<circle cx="1599" cy="528" r="178" fill="#2A3E84"/>
</g>
<g filter="url(#filter6_f_5_301)">
<circle cx="451" cy="1989" r="178" fill="#2A3E84"/>
</g>
<g filter="url(#filter7_f_5_301)">
<circle cx="451" cy="2818" r="178" fill="#2A3E84"/>
</g>
<path d="M972.383 700.29L971.59 706.898L966.474 710.017L972.344 711.217L975.331 717.165L976.124 710.557L981.24 707.438L975.369 706.237L972.383 700.29Z" fill="#15BFFD"/>
<path d="M1237.38 713.29L1236.59 719.898L1231.47 723.017L1237.34 724.217L1240.33 730.165L1241.12 723.557L1246.24 720.438L1240.37 719.237L1237.38 713.29Z" fill="#15BFFD"/>
<path d="M342.635 1099.77L341.6 1108.39L334.924 1112.46L342.585 1114.03L346.482 1121.79L347.517 1113.17L354.193 1109.09L346.532 1107.53L342.635 1099.77Z" fill="white"/>
<path d="M575.548 753.668L574.522 762.214L567.906 766.249L575.498 767.801L579.361 775.493L580.386 766.947L587.002 762.912L579.41 761.36L575.548 753.668Z" fill="#15BFFD"/>
<g filter="url(#filter8_dddddd_5_301)">
<path d="M1655.51 709.059L1653.63 724.732L1641.5 732.13L1655.42 734.976L1662.5 749.082L1664.38 733.41L1676.52 726.011L1662.59 723.165L1655.51 709.059Z" fill="#15BFFD"/>
</g>
<path d="M1577.02 1488.59L1575.05 1505.01L1562.33 1512.77L1576.92 1515.75L1584.35 1530.53L1586.32 1514.11L1599.03 1506.36L1584.44 1503.37L1577.02 1488.59Z" fill="#15BFFD"/>
<path d="M1340.71 1410.4L1339.93 1416.93L1334.87 1420.02L1340.67 1421.2L1343.63 1427.08L1344.41 1420.55L1349.47 1417.47L1343.67 1416.28L1340.71 1410.4Z" fill="#15BFFD"/>
<path d="M1609.59 2657.85L1608.45 2667.33L1601.12 2671.81L1609.54 2673.53L1613.82 2682.06L1614.96 2672.58L1622.3 2668.1L1613.88 2666.38L1609.59 2657.85Z" fill="#15BFFD"/>
<path d="M1198.97 2817.96L1198.24 2824L1193.56 2826.85L1198.93 2827.95L1201.66 2833.39L1202.39 2827.35L1207.06 2824.49L1201.7 2823.4L1198.97 2817.96Z" fill="#15BFFD"/>
<path d="M443.079 4285.55L441.759 4296.55L433.242 4301.74L443.016 4303.74L447.988 4313.64L449.308 4302.64L457.825 4297.45L448.052 4295.45L443.079 4285.55Z" fill="#15BFFD"/>
<path d="M1658.29 4841.15L1656.97 4852.15L1648.45 4857.34L1658.23 4859.34L1663.2 4869.24L1664.52 4858.24L1673.04 4853.05L1663.26 4851.05L1658.29 4841.15Z" fill="#15BFFD"/>
<path d="M1192.15 4338.7L1194.4 4342.88L1192.69 4346.79L1196.6 4345.09L1200.78 4347.33L1198.54 4343.15L1200.24 4339.24L1196.33 4340.95L1192.15 4338.7Z" fill="#15BFFD"/>
<path d="M1279.97 5986.96L1278.45 5999.6L1268.67 6005.56L1279.89 6007.86L1285.6 6019.23L1287.12 6006.59L1296.91 6000.63L1285.68 5998.33L1279.97 5986.96Z" fill="#15BFFD"/>
<path d="M1089.28 6140.29L1088.63 6145.72L1084.43 6148.28L1089.25 6149.27L1091.7 6154.15L1092.35 6148.72L1096.55 6146.16L1091.73 6145.18L1089.28 6140.29Z" fill="#15BFFD"/>
<path d="M569.062 6237.06L568.411 6242.48L564.21 6245.05L569.031 6246.03L571.483 6250.92L572.134 6245.49L576.334 6242.93L571.514 6241.94L569.062 6237.06Z" fill="#15BFFD"/>
<path d="M1501.75 3049.18L1501.03 3055.22L1496.35 3058.07L1501.72 3059.17L1504.45 3064.61L1505.17 3058.57L1509.85 3055.72L1504.48 3054.62L1501.75 3049.18Z" fill="#15BFFD"/>
<path d="M387.751 2641.18L387.026 2647.22L382.348 2650.07L387.716 2651.17L390.447 2656.61L391.172 2650.57L395.85 2647.72L390.482 2646.62L387.751 2641.18Z" fill="#15BFFD"/>
<path d="M468.751 5810.18L468.026 5816.22L463.348 5819.07L468.716 5820.17L471.447 5825.61L472.172 5819.57L476.85 5816.72L471.482 5815.62L468.751 5810.18Z" fill="#15BFFD"/>
<path d="M580.581 2222.08L579.301 2232.75L571.041 2237.79L580.519 2239.73L585.342 2249.33L586.622 2238.66L594.882 2233.62L585.404 2231.69L580.581 2222.08Z" fill="#15BFFD"/>
<path d="M1208.55 1262.67L1207.94 1267.74L1204.01 1270.13L1208.52 1271.05L1210.81 1275.62L1211.42 1270.55L1215.35 1268.15L1210.84 1267.23L1208.55 1262.67Z" fill="#15BFFD"/>
<g filter="url(#filter9_f_5_301)">
<circle cx="468" cy="639" r="178" fill="#2A3E84"/>
</g>
<g filter="url(#filter10_f_5_301)">
<circle cx="1664" cy="1417" r="199" fill="#192065"/>
</g>
<defs>
<filter id="filter0_f_5_301" x="1068" y="3332" width="1056" height="1056" filterUnits="userSpaceOnUse" color-interpolation-filters="sRGB">
<feFlood flood-opacity="0" result="BackgroundImageFix"/>
<feBlend mode="normal" in="SourceGraphic" in2="BackgroundImageFix" result="shape"/>
<feGaussianBlur stdDeviation="175" result="effect1_foregroundBlur_5_301"/>
</filter>
<filter id="filter1_f_5_301" x="-87" y="4033" width="1056" height="1056" filterUnits="userSpaceOnUse" color-interpolation-filters="sRGB">
<feFlood flood-opacity="0" result="BackgroundImageFix"/>
<feBlend mode="normal" in="SourceGraphic" in2="BackgroundImageFix" result="shape"/>
<feGaussianBlur stdDeviation="175" result="effect1_foregroundBlur_5_301"/>
</filter>
<filter id="filter2_f_5_301" x="1088" y="4362" width="1056" height="1056" filterUnits="userSpaceOnUse" color-interpolation-filters="sRGB">
<feFlood flood-opacity="0" result="BackgroundImageFix"/>
<feBlend mode="normal" in="SourceGraphic" in2="BackgroundImageFix" result="shape"/>
<feGaussianBlur stdDeviation="175" result="effect1_foregroundBlur_5_301"/>
</filter>
<filter id="filter3_f_5_301" x="1088" y="5768" width="1056" height="1056" filterUnits="userSpaceOnUse" color-interpolation-filters="sRGB">
<feFlood flood-opacity="0" result="BackgroundImageFix"/>
<feBlend mode="normal" in="SourceGraphic" in2="BackgroundImageFix" result="shape"/>
<feGaussianBlur stdDeviation="175" result="effect1_foregroundBlur_5_301"/>
</filter>
<filter id="filter4_f_5_301" x="-112" y="5429" width="1108" height="1108" filterUnits="userSpaceOnUse" color-interpolation-filters="sRGB">
<feFlood flood-opacity="0" result="BackgroundImageFix"/>
<feBlend mode="normal" in="SourceGraphic" in2="BackgroundImageFix" result="shape"/>
<feGaussianBlur stdDeviation="175" result="effect1_foregroundBlur_5_301"/>
</filter>
<filter id="filter5_f_5_301" x="1071" y="0" width="1056" height="1056" filterUnits="userSpaceOnUse" color-interpolation-filters="sRGB">
<feFlood flood-opacity="0" result="BackgroundImageFix"/>
<feBlend mode="normal" in="SourceGraphic" in2="BackgroundImageFix" result="shape"/>
<feGaussianBlur stdDeviation="175" result="effect1_foregroundBlur_5_301"/>
</filter>
<filter id="filter6_f_5_301" x="-77" y="1461" width="1056" height="1056" filterUnits="userSpaceOnUse" color-interpolation-filters="sRGB">
<feFlood flood-opacity="0" result="BackgroundImageFix"/>
<feBlend mode="normal" in="SourceGraphic" in2="BackgroundImageFix" result="shape"/>
<feGaussianBlur stdDeviation="175" result="effect1_foregroundBlur_5_301"/>
</filter>
<filter id="filter7_f_5_301" x="-77" y="2290" width="1056" height="1056" filterUnits="userSpaceOnUse" color-interpolation-filters="sRGB">
<feFlood flood-opacity="0" result="BackgroundImageFix"/>
<feBlend mode="normal" in="SourceGraphic" in2="BackgroundImageFix" result="shape"/>
<feGaussianBlur stdDeviation="175" result="effect1_foregroundBlur_5_301"/>
</filter>
<filter id="filter8_dddddd_5_301" x="1487.92" y="555.481" width="342.177" height="347.18" filterUnits="userSpaceOnUse" color-interpolation-filters="sRGB">
<feFlood flood-opacity="0" result="BackgroundImageFix"/>
<feColorMatrix in="SourceAlpha" type="matrix" values="0 0 0 0 0 0 0 0 0 0 0 0 0 0 0 0 0 0 127 0" result="hardAlpha"/>
<feOffset/>
<feGaussianBlur stdDeviation="1.82832"/>
<feColorMatrix type="matrix" values="0 0 0 0 0.14902 0 0 0 0 0.0901961 0 0 0 0 0.992157 0 0 0 1 0"/>
<feBlend mode="normal" in2="BackgroundImageFix" result="effect1_dropShadow_5_301"/>
<feColorMatrix in="SourceAlpha" type="matrix" values="0 0 0 0 0 0 0 0 0 0 0 0 0 0 0 0 0 0 127 0" result="hardAlpha"/>
<feOffset/>
<feGaussianBlur stdDeviation="3.65663"/>
<feColorMatrix type="matrix" values="0 0 0 0 0.14902 0 0 0 0 0.0901961 0 0 0 0 0.992157 0 0 0 1 0"/>
<feBlend mode="normal" in2="effect1_dropShadow_5_301" result="effect2_dropShadow_5_301"/>
<feColorMatrix in="SourceAlpha" type="matrix" values="0 0 0 0 0 0 0 0 0 0 0 0 0 0 0 0 0 0 127 0" result="hardAlpha"/>
<feOffset/>
<feGaussianBlur stdDeviation="12.7982"/>
<feColorMatrix type="matrix" values="0 0 0 0 0.14902 0 0 0 0 0.0901961 0 0 0 0 0.992157 0 0 0 1 0"/>
<feBlend mode="normal" in2="effect2_dropShadow_5_301" result="effect3_dropShadow_5_301"/>
<feColorMatrix in="SourceAlpha" type="matrix" values="0 0 0 0 0 0 0 0 0 0 0 0 0 0 0 0 0 0 127 0" result="hardAlpha"/>
<feOffset/>
<feGaussianBlur stdDeviation="25.5964"/>
<feColorMatrix type="matrix" values="0 0 0 0 0.14902 0 0 0 0 0.0901961 0 0 0 0 0.992157 0 0 0 1 0"/>
<feBlend mode="normal" in2="effect3_dropShadow_5_301" result="effect4_dropShadow_5_301"/>
<feColorMatrix in="SourceAlpha" type="matrix" values="0 0 0 0 0 0 0 0 0 0 0 0 0 0 0 0 0 0 127 0" result="hardAlpha"/>
<feOffset/>
<feGaussianBlur stdDeviation="43.8796"/>
<feColorMatrix type="matrix" values="0 0 0 0 0.14902 0 0 0 0 0.0901961 0 0 0 0 0.992157 0 0 0 1 0"/>
<feBlend mode="normal" in2="effect4_dropShadow_5_301" result="effect5_dropShadow_5_301"/>
<feColorMatrix in="SourceAlpha" type="matrix" values="0 0 0 0 0 0 0 0 0 0 0 0 0 0 0 0 0 0 127 0" result="hardAlpha"/>
<feOffset/>
<feGaussianBlur stdDeviation="76.7893"/>
<feColorMatrix type="matrix" values="0 0 0 0 0.14902 0 0 0 0 0.0901961 0 0 0 0 0.992157 0 0 0 1 0"/>
<feBlend mode="normal" in2="effect5_dropShadow_5_301" result="effect6_dropShadow_5_301"/>
<feBlend mode="normal" in="SourceGraphic" in2="effect6_dropShadow_5_301" result="shape"/>
</filter>
<filter id="filter9_f_5_301" x="-60" y="111" width="1056" height="1056" filterUnits="userSpaceOnUse" color-interpolation-filters="sRGB">
<feFlood flood-opacity="0" result="BackgroundImageFix"/>
<feBlend mode="normal" in="SourceGraphic" in2="BackgroundImageFix" result="shape"/>
<feGaussianBlur stdDeviation="175" result="effect1_foregroundBlur_5_301"/>
</filter>
<filter id="filter10_f_5_301" x="1115" y="868" width="1098" height="1098" filterUnits="userSpaceOnUse" color-interpolation-filters="sRGB">
<feFlood flood-opacity="0" result="BackgroundImageFix"/>
<feBlend mode="normal" in="SourceGraphic" in2="BackgroundImageFix" result="shape"/>
<feGaussianBlur stdDeviation="175" result="effect1_foregroundBlur_5_301"/>
</filter>
</defs>
</svg>
